HIERARCHY
ROOT Hips
{
	OFFSET 0.00000 0.00000 0.00000
	CHANNELS 6 Xposition Yposition Zposition Zrotation Yrotation Xrotation 
	JOINT LHipJoint
	{
		OFFSET 0 0 0
		CHANNELS 3 Zrotation Yrotation Xrotation
		JOINT LeftHip
		{
			OFFSET 1.37590 -1.78394 0.89329
			CHANNELS 3 Zrotation Yrotation Xrotation
			JOINT LeftKnee
			{
				OFFSET 2.47928 -6.81178 0.00000
				CHANNELS 3 Zrotation Yrotation Xrotation
				JOINT LeftAnkle
				{
					OFFSET 2.63345 -7.23535 0.00000
					CHANNELS 3 Zrotation Yrotation Xrotation
					JOINT LeftToe
					{
						OFFSET 0.23938 -0.65768 2.27012
						CHANNELS 3 Zrotation Yrotation Xrotation
						End Site
						{
							OFFSET 0.00000 -0.00000 1.18363
						}
					}
				}
			}
		}
	}
	JOINT RHipJoint
	{
		OFFSET 0 0 0
		CHANNELS 3 Zrotation Yrotation Xrotation
		JOINT RightHip
		{
			OFFSET -1.33617 -1.78394 0.89329
			CHANNELS 3 Zrotation Yrotation Xrotation
			JOINT RightKnee
			{
				OFFSET -2.56922 -7.05888 0.00000
				CHANNELS 3 Zrotation Yrotation Xrotation
				JOINT RightAnkle
				{
					OFFSET -2.56568 -7.04915 0.00000
					CHANNELS 3 Zrotation Yrotation Xrotation
					JOINT RightToe
					{
						OFFSET -0.27533 -0.75646 2.18105
						CHANNELS 3 Zrotation Yrotation Xrotation
						End Site
						{
							OFFSET -0.00000 -0.00000 1.15233
						}
					}
				}
			}
		}
	}
	JOINT lowerback
	{
		OFFSET 0 0 0
		CHANNELS 3 Zrotation Yrotation Xrotation
		JOINT Chest
		{
			OFFSET 0.06190 2.15152 -0.00935
			CHANNELS 3 Zrotation Yrotation Xrotation
			JOINT Chest2
			{
				OFFSET 0.06334 2.15332 0.00872
				CHANNELS 3 Zrotation Yrotation Xrotation
				JOINT lowerneck
				{
					OFFSET 0 0 0
					CHANNELS 3 Zrotation Yrotation Xrotation
					JOINT Neck
					{
						OFFSET -0.04202 1.66908 0.23524
						CHANNELS 3 Zrotation Yrotation Xrotation
						JOINT Head
						{
							OFFSET 0.07510 1.69357 -0.24440
							CHANNELS 3 Zrotation Yrotation Xrotation
							End Site
							{
								OFFSET 0.02556 1.71719 -0.11000
							}
						}
					}
				}
				JOINT LeftCollar
				{
					OFFSET 0 0 0
					CHANNELS 3 Zrotation Yrotation Xrotation
					JOINT LeftShoulder
					{
						OFFSET 3.67168 1.26306 -0.41342
CHANNELS 3 Zrotation Xrotation Yrotation
						JOINT LeftElbow
						{
OFFSET 0 -4.685100 -0.000000
CHANNELS 3 Zrotation Xrotation Yrotation
							JOINT LeftWrist
							{
OFFSET 0 -3.396260 -0.000000
CHANNELS 3 Zrotation Xrotation Yrotation
								JOINT lhand
								{
									OFFSET 0 0 0
CHANNELS 3 Zrotation Xrotation Yrotation
									JOINT LFingers
									{
OFFSET 0 -0.486080 -0.000000
CHANNELS 3 Zrotation Xrotation Yrotation
										End Site
										{
OFFSET 0 -0.391890 -0.000000
										}
									}
								}
								JOINT LThumb
								{
OFFSET 0 0.000000 0.000000
CHANNELS 3 Zrotation Xrotation Yrotation
									End Site
									{
OFFSET 0 -0.397870 0.397870
									}
								}
							}
						}
					}
				}
				JOINT RightCollar
				{
					OFFSET 0 0 0
					CHANNELS 3 Zrotation Yrotation Xrotation
					JOINT RightShoulder
					{
						OFFSET -3.04136 1.42992 -0.76390
CHANNELS 3 Zrotation Xrotation Yrotation
						JOINT RightElbow
						{
OFFSET 0 -5.555760 -0.000000
CHANNELS 3 Zrotation Xrotation Yrotation
							JOINT RightWrist
							{
OFFSET 0 -3.327740 -0.000000
CHANNELS 3 Zrotation Xrotation Yrotation
								JOINT rhand
								{
									OFFSET 0 0 0
CHANNELS 3 Zrotation Xrotation Yrotation
									JOINT RFingers
									{
OFFSET 0 -0.507630 -0.000000
CHANNELS 3 Zrotation Xrotation Yrotation
										End Site
										{
OFFSET 0 -0.409260 -0.000000
										}
									}
								}
								JOINT RThumb
								{
OFFSET 0 0.000000 0.000000
CHANNELS 3 Zrotation Xrotation Yrotation
									End Site
									{
OFFSET 0 -0.415510 0.415510
									}
								}
							}
						}
					}
				}
			}
		}
	}
}
MOTION
Frames: 10
Frame Time: 0.008333333333333333
-0.738089 17.579098 4.785657 -489.555427 -77.318407 499.882359 0.000000 0.000000 0.000000 1.310249 -10.195160 -36.353166 0.808216 5.737317 16.024085 0.031589 4.565290 -7.558144 0.780802 -5.641265 -15.747057 0.000000 0.000000 0.000000 31.353321 6.075708 -2.562390 -1.534565 -7.820486 22.170065 -1.221181 0.248209 -20.820479 -0.004043 -0.381833 1.049187 7.649043 -0.233270 2.870574 4.691832 -0.245347 1.110071 0.565625 -0.190693 -0.465769 -16.894611 -17.050519 -0.250750 25.462427 -25.994488 5.839225 8.035028 -12.643662 7.594666 0.000000 0.000000 0.000000 0.696616 19.216559 0.817395 13.890388 -22.577445 2.786173 11.819489 32.908165 -15.762955 0.000000 0.000000 0.000000 -7.125000 0.000000 0.000000 -14.805869 45.530273 0.198183 0.000000 0.000000 0.000000 -55.865320 -7.272295 62.680599 -145.622697 -44.361398 -105.623449 -36.671767 27.147697 11.246285 0.000000 0.000000 0.000000 7.125000 0.000000 0.000000 -8.777290 43.728402 -0.277428
-0.854289 17.564643 4.790234 -489.915689 -77.188402 500.200274 0.000000 0.000000 0.000000 1.335143 -10.051601 -36.264610 0.808801 5.739403 16.030081 0.037770 4.292565 -7.417692 0.800991 -5.711912 -15.950895 0.000000 0.000000 0.000000 31.309007 5.950510 -2.266713 -1.571250 -7.908777 22.437513 -1.234518 0.441056 -20.872652 -0.001518 -0.102592 0.281949 7.646940 -0.289170 2.845478 4.606071 -0.318879 1.108447 0.480260 -0.225212 -0.457519 -17.037222 -17.187134 -0.044283 25.789202 -26.233670 5.586262 8.124614 -12.783882 7.607965 0.000000 0.000000 0.000000 0.827903 19.000863 1.206983 13.649908 -22.231416 2.694607 11.743647 33.171966 -15.730461 0.000000 0.000000 0.000000 -7.125000 0.000000 0.000000 -14.863852 45.489289 0.183530 0.000000 0.000000 0.000000 -57.859536 -7.707851 63.221205 -145.982799 -44.096627 -105.874691 -36.692967 27.603367 10.946035 0.000000 0.000000 0.000000 7.125000 0.000000 0.000000 -8.783689 43.366990 -0.357000
-0.971127 17.550610 4.795140 -490.252294 -77.071580 500.488464 0.000000 0.000000 0.000000 1.320753 -9.885582 -36.203231 0.821238 5.781956 16.153096 0.042828 3.986394 -7.211870 0.821003 -5.781421 -16.151547 0.000000 0.000000 0.000000 31.254364 5.826417 -1.982748 -1.612637 -8.007469 22.736973 -1.246057 0.622136 -20.914194 -0.001526 0.195677 -0.537587 7.642829 -0.348726 2.824755 4.516082 -0.396207 1.102487 0.391802 -0.261770 -0.456598 -17.176195 -17.321309 0.167815 26.117211 -26.468873 5.324490 8.215186 -12.923508 7.617384 0.000000 0.000000 0.000000 0.977719 18.789863 1.562987 13.421132 -21.900909 2.608366 11.641339 33.434066 -15.687291 0.000000 0.000000 0.000000 -7.125000 0.000000 0.000000 -14.942235 45.434660 0.163900 0.000000 0.000000 0.000000 -59.856808 -8.115029 63.563220 -146.274363 -43.880339 -106.077468 -36.748453 27.861843 10.724233 0.000000 0.000000 0.000000 7.125000 0.000000 0.000000 -8.825025 43.104939 -0.416229
-1.089198 17.537434 4.800796 -490.542811 -76.984232 500.719850 0.000000 0.000000 0.000000 1.229035 -9.677335 -36.198603 0.855753 5.898999 16.491755 0.043599 3.645871 -6.853158 0.837264 -5.836889 -16.311846 0.000000 0.000000 0.000000 31.177750 5.705004 -1.726167 -1.663992 -8.127597 23.102563 -1.254220 0.782371 -20.935211 -0.007696 0.522188 -1.435042 7.635180 -0.416856 2.814856 4.416715 -0.482269 1.084362 0.296162 -0.303098 -0.475238 -17.309114 -17.448892 0.389881 26.446936 -26.695503 5.053126 8.307740 -13.061311 7.621497 0.000000 0.000000 0.000000 1.160706 18.599549 1.852862 13.222204 -21.611613 2.534773 11.488174 33.691933 -15.621668 0.000000 0.000000 0.000000 -7.125000 0.000000 0.000000 -15.059149 45.352004 0.133820 0.000000 0.000000 0.000000 -61.842611 -8.453880 63.528448 -146.407089 -43.780715 -106.169315 -36.872694 27.729761 10.592086 0.000000 0.000000 0.000000 7.125000 0.000000 0.000000 -8.933455 42.960194 -0.453701
-1.208015 17.525081 4.806884 -490.790958 -76.922502 500.902195 0.000000 0.000000 0.000000 1.087217 -9.455475 -36.228146 0.905490 6.062061 16.965176 0.039977 3.333949 -6.382164 0.849956 -5.879921 -16.436326 0.000000 0.000000 0.000000 31.084579 5.585121 -1.495400 -1.724017 -8.264948 23.522331 -1.259244 0.923656 -20.936064 -0.019869 0.868433 -2.387187 7.623569 -0.493421 2.814649 4.311619 -0.577434 1.056703 0.197345 -0.349409 -0.509962 -17.438893 -17.572513 0.608690 26.773836 -26.918170 4.787216 8.399196 -13.197505 7.627416 0.000000 0.000000 0.000000 1.360446 18.427477 2.104054 13.049131 -21.358920 2.471340 11.315904 33.954389 -15.532544 0.000000 0.000000 0.000000 -7.125000 0.000000 0.000000 -15.185596 45.244278 0.093539 0.000000 0.000000 0.000000 -63.800245 -8.730706 63.217717 -146.381944 -43.799610 -106.151901 -37.041660 27.415602 10.514550 0.000000 0.000000 0.000000 7.125000 0.000000 0.000000 -9.085824 42.887519 -0.477912
-1.327359 17.513346 4.813286 -491.008800 -76.879698 501.049452 0.000000 0.000000 0.000000 0.909655 -9.225244 -36.281819 0.966180 6.257659 17.534070 0.033325 3.045015 -5.832552 0.859432 -5.911859 -16.528807 0.000000 0.000000 0.000000 30.979180 5.466554 -1.283927 -1.790494 -8.415009 23.982148 -1.261900 1.051234 -20.921461 -0.036508 1.228507 -3.377763 7.608969 -0.576197 2.821113 4.202125 -0.679396 1.022420 0.096047 -0.399411 -0.555883 -17.566133 -17.693251 0.824594 27.098950 -27.138048 4.525571 8.489821 -13.332522 7.634868 0.000000 0.000000 0.000000 1.572316 18.268389 2.327547 12.895119 -21.133297 2.415354 11.130677 34.219600 -15.426524 0.000000 0.000000 0.000000 -7.125000 0.000000 0.000000 -15.318178 45.118637 0.045924 0.000000 0.000000 0.000000 -65.735387 -8.962327 62.707200 -146.238454 -43.907055 -106.052476 -37.239797 26.980205 10.477383 0.000000 0.000000 0.000000 7.125000 0.000000 0.000000 -9.267152 42.867664 -0.492106
-1.447616 17.503191 4.820356 -491.170127 -76.881498 501.131080 0.000000 0.000000 0.000000 0.666829 -9.000542 -36.375658 1.048322 6.508069 18.266856 0.022784 2.838117 -5.162497 0.852683 -5.889106 -16.462926 0.000000 0.000000 0.000000 30.844976 5.353882 -1.121250 -1.872893 -8.594847 24.536703 -1.258237 1.150858 -20.862072 -0.064145 1.609972 -4.429410 7.586409 -0.673315 2.836025 4.079748 -0.798496 0.978778 -0.013090 -0.458286 -0.617907 -17.684076 -17.807851 1.026157 27.424368 -27.353430 4.277538 8.578197 -13.464926 7.648944 0.000000 0.000000 0.000000 1.809100 18.132514 2.498901 12.785468 -20.971905 2.376019 10.932264 34.481773 -15.287628 0.000000 0.000000 0.000000 -7.125000 0.000000 0.000000 -15.451611 44.959817 -0.015972 0.000000 0.000000 0.000000 -67.592321 -9.096659 61.786863 -145.790273 -44.238065 -105.740362 -37.448752 26.457787 10.535744 0.000000 0.000000 0.000000 7.125000 0.000000 0.000000 -9.464280 42.966003 -0.479380
-1.568289 17.493997 4.827650 -491.311902 -76.908139 501.187386 0.000000 0.000000 0.000000 0.396436 -8.792797 -36.478088 1.139503 6.775468 19.053138 0.012820 2.659363 -4.483725 0.838370 -5.840422 -16.322136 0.000000 0.000000 0.000000 30.693271 5.246179 -0.987357 -1.965229 -8.791481 25.146325 -1.250406 1.237437 -20.771238 -0.097681 1.995091 -5.492822 7.556188 -0.777805 2.850456 3.949806 -0.927499 0.935296 -0.125240 -0.522001 -0.680444 -17.792947 -17.919887 1.213937 27.749145 -27.566567 4.037199 8.663977 -13.595311 7.666930 0.000000 0.000000 0.000000 2.057264 18.000806 2.647144 12.698799 -20.844234 2.345049 10.741544 34.737343 -15.139597 0.000000 0.000000 0.000000 -7.125000 0.000000 0.000000 -15.575042 44.793303 -0.081746 0.000000 0.000000 0.000000 -69.393162 -9.187559 60.665392 -145.141405 -44.705847 -105.284585 -37.649276 25.950467 10.610708 0.000000 0.000000 0.000000 7.125000 0.000000 0.000000 -9.655093 43.083990 -0.460788
-1.689380 17.485770 4.835170 -491.434022 -76.959751 501.218237 0.000000 0.000000 0.000000 0.098334 -8.602097 -36.589153 1.239770 7.059944 19.893197 0.003436 2.508898 -3.796188 0.816452 -5.765671 -16.106048 0.000000 0.000000 0.000000 30.523974 5.143469 -0.882398 -2.067553 -9.004999 25.811301 -1.238387 1.310902 -20.648797 -0.137145 2.383883 -6.568058 7.518267 -0.889706 2.864403 3.812260 -1.066459 0.891975 -0.240418 -0.590581 -0.743497 -17.892700 -18.029345 1.387861 28.073278 -27.777450 3.804592 8.747147 -13.723665 7.688848 0.000000 0.000000 0.000000 2.316866 17.873287 2.772156 12.635232 -20.750459 2.322489 10.558556 34.986275 -14.982384 0.000000 0.000000 0.000000 -7.125000 0.000000 0.000000 -15.688421 44.619057 -0.151419 0.000000 0.000000 0.000000 -71.137617 -9.234801 59.341737 -144.290806 -45.311113 -104.684396 -37.841326 25.458323 10.702363 0.000000 0.000000 0.000000 7.125000 0.000000 0.000000 -9.839559 43.221729 -0.436299
-1.810896 17.480028 4.842993 -491.548870 -77.060328 501.226666 0.000000 0.000000 0.000000 -0.245339 -8.462120 -36.683977 1.350037 7.351692 20.763253 -0.002009 2.357827 -3.185311 0.778355 -5.631714 -15.719731 0.000000 0.000000 0.000000 30.315771 5.052153 -0.832828 -2.191087 -9.250696 26.584693 -1.217035 1.364672 -20.450543 -0.185699 2.760434 -7.613539 7.456287 -1.016332 2.887016 3.660230 -1.224448 0.846655 -0.355779 -0.668615 -0.815276 -17.982454 -18.127956 1.547424 28.402441 -27.976878 3.581257 8.831409 -13.846263 7.714946 0.000000 0.000000 0.000000 2.591072 17.757403 2.871898 12.609481 -20.712375 2.313382 10.408657 35.204907 -14.827170 0.000000 0.000000 0.000000 -7.125000 0.000000 0.000000 -15.772954 44.450992 -0.219637 0.000000 0.000000 0.000000 -72.756567 -9.208472 57.717260 -142.980972 -46.188357 -103.742055 -37.959200 25.167858 10.817712 0.000000 0.000000 0.000000 7.125000 0.000000 0.000000 -9.957364 43.379406 -0.402236
